HIERARCHY
ROOT Hips
{
	OFFSET 0.000000 0.000000 0.000000 
	CHANNELS 6 Xposition Yposition Zposition Zrotation Yrotation Xrotation
	JOINT LeftUpLeg
	{
		OFFSET 1.363060 -1.794630 0.839290 
		CHANNELS 3 Zrotation Yrotation Xrotation
		JOINT LeftLeg
		{
			OFFSET 2.448110 -6.726130 0.000000 
			CHANNELS 3 Zrotation Yrotation Xrotation
			JOINT LeftFoot
			{
				OFFSET 2.562200 -7.039590 0.000000 
				CHANNELS 3 Zrotation Yrotation Xrotation
				JOINT LeftToeBase
				{
					OFFSET 0.157640 -0.433110 2.322550 
					CHANNELS 3 Zrotation Yrotation Xrotation
					End Site
					{
						OFFSET 0.000000 0.000000 0.000000 
					}
				}
			}
		}
	}
	JOINT RightUpLeg
	{
		OFFSET -1.305520 -1.794630 0.839290 
		CHANNELS 3 Zrotation Yrotation Xrotation
		JOINT RightLeg
		{
			OFFSET -2.542530 -6.985550 0.000000 
			CHANNELS 3 Zrotation Yrotation Xrotation
			JOINT RightFoot
			{
				OFFSET -2.568260 -7.056230 0.000000 
				CHANNELS 3 Zrotation Yrotation Xrotation
				JOINT RightToeBase
				{
					OFFSET -0.164730 -0.452590 2.363150 
					CHANNELS 3 Zrotation Yrotation Xrotation
					End Site
					{
						OFFSET 0.000000 0.000000 0.000000 
					}
				}
			}
		}
	}
	JOINT Spine
	{
		OFFSET 0.028270 2.035590 -0.193380 
		CHANNELS 3 Zrotation Yrotation Xrotation
		JOINT Spine1
		{
			OFFSET 0.056720 2.048850 -0.042750 
			CHANNELS 3 Zrotation Yrotation Xrotation
			JOINT Neck1
			{
				OFFSET -0.054170 1.746240 0.172020 
				CHANNELS 3 Zrotation Yrotation Xrotation
				JOINT Head
				{
					OFFSET 0.104070 1.761360 -0.123970 
					CHANNELS 3 Zrotation Yrotation Xrotation
					End Site
					{
						OFFSET 0.000000 0.000000 0.000000 
					}
				}
			}
			JOINT LeftArm
			{
				OFFSET 3.362410 1.200890 -0.311210 
				CHANNELS 3 Zrotation Yrotation Xrotation
				JOINT LeftForeArm
				{
					OFFSET 4.983000 -0.000000 -0.000000 
					CHANNELS 3 Zrotation Yrotation Xrotation
					JOINT LeftHand
					{
						OFFSET 3.483560 -0.000000 -0.000000 
						CHANNELS 3 Zrotation Yrotation Xrotation
						JOINT LeftHandIndex1
						{
							OFFSET 0.715260 -0.000000 -0.000000 
							CHANNELS 3 Zrotation Yrotation Xrotation
							End Site
							{
								OFFSET 0.000000 0.000000 0.000000 
							}
						}
					}
				}
			}
			JOINT RightArm
			{
				OFFSET -3.136600 1.374050 -0.404650 
				CHANNELS 3 Zrotation Yrotation Xrotation
				JOINT RightForeArm
				{
					OFFSET -5.241900 -0.000000 -0.000000 
					CHANNELS 3 Zrotation Yrotation Xrotation
					JOINT RightHand
					{
						OFFSET -3.444170 -0.000000 -0.000000 
						CHANNELS 3 Zrotation Yrotation Xrotation
						JOINT RightHandIndex1
						{
							OFFSET -0.622530 -0.000000 -0.000000 
							CHANNELS 3 Zrotation Yrotation Xrotation
							End Site
							{
								OFFSET 0.000000 0.000000 0.000000 
							}
						}
					}
				}
			}
		}
	}
}
MOTION
Frames: 18
Frame Time: 0.041667
0.603875 16.111478 3.844913 12.730017 -46.074616 10.954197 -26.511388 -36.773537 -41.949501 7.199486 16.736867 51.685238 1.915550 -6.161065 -9.374705 0.682500 5.282100 14.715000 5.330140 18.669308 -60.348060 -17.732347 -21.593259 82.018964 4.670685 -20.256280 -2.784166 -2.562300 9.950300 -28.816000 -7.148470 10.234991 12.015100 -6.692547 5.454423 1.045351 3.725177 -7.878170 44.215764 2.173600 -4.245500 25.225800 -71.006876 -23.614578 90.821232 91.995298 -57.558532 -71.912805 1.188875 -3.008577 -38.899525 -7.125000 0.000000 0.000000 80.419378 7.501109 73.815242 -47.987714 42.857996 -22.695397 -0.457093 -0.717499 -3.064477 7.125000 0.000000 0.000000 
0.596006 16.132224 3.886507 13.160980 -46.442179 10.672360 -27.086263 -36.711425 -41.565707 7.151538 16.686787 51.528032 1.890311 -5.927696 -9.587282 0.718600 5.417200 15.102300 4.894115 18.560097 -60.120735 -17.673171 -21.580382 81.903195 4.532466 -19.743498 -3.034162 -2.480100 9.801600 -28.336600 -7.355757 10.509217 12.315018 -6.588260 5.604767 1.614625 3.961128 -8.098445 43.969350 2.307900 -4.310700 25.140800 -71.054672 -23.894527 90.904550 92.053619 -57.541517 -71.965501 1.202253 -3.003843 -39.024917 -7.125000 0.000000 0.000000 80.410668 7.850739 73.969678 -48.333368 43.011862 -22.986564 -0.531871 -0.706180 -3.056962 7.125000 0.000000 0.000000 
0.595904 16.132020 3.881500 13.116625 -46.409691 10.772617 -27.020347 -36.717988 -41.674071 7.156092 16.695960 51.548884 1.871326 -5.817679 -9.606854 0.677900 5.264700 14.665100 4.927504 18.560761 -60.214695 -17.681137 -21.584639 81.921858 4.552925 -19.814296 -3.042246 -2.472600 9.787900 -28.292600 -7.431157 10.681454 12.351096 -6.644355 5.687397 1.670822 4.092343 -8.381729 43.856696 2.363300 -4.394600 25.026500 -71.050778 -24.104823 91.207467 92.367760 -57.576822 -72.208977 1.279133 -2.979885 -39.553197 -7.125000 0.000000 0.000000 80.478412 7.966514 73.920505 -48.782254 43.227401 -23.368519 -0.566867 -0.692969 -2.926417 7.125000 0.000000 0.000000 
0.594678 16.133144 3.875368 13.162480 -46.383209 10.803667 -27.011786 -36.723588 -41.717380 7.134458 16.682646 51.481546 1.853464 -5.733648 -9.571237 0.638500 5.112100 14.228700 4.906652 18.529247 -60.296774 -17.680734 -21.587062 81.900901 4.587701 -19.956912 -2.873792 -2.518200 9.870900 -28.559700 -7.635627 10.880622 12.359654 -6.699206 5.769795 1.649765 3.987557 -8.711026 43.868544 2.217500 -4.457300 25.073100 -70.839493 -24.365696 91.572674 92.747562 -57.605739 -72.490363 1.345823 -2.959864 -39.840681 -7.125000 0.000000 0.000000 80.692686 7.975515 73.805105 -49.339977 43.494400 -23.846121 -0.591369 -0.674451 -2.847798 7.125000 0.000000 0.000000 
0.590692 16.135290 3.876185 13.201760 -46.420497 10.832461 -27.004875 -36.726435 -41.799326 7.163634 16.706870 51.577695 1.864813 -5.763352 -9.656550 0.650300 5.158300 14.360500 4.858885 18.548212 -60.326448 -17.684591 -21.588489 81.924534 4.557302 -19.840104 -2.940106 -2.517400 9.869500 -28.555300 -7.746923 10.762053 12.283182 -6.805682 5.703001 1.644925 4.265597 -8.571736 43.951054 2.472000 -4.464100 25.216800 -70.698790 -24.141164 91.314769 92.995737 -57.643026 -72.646442 1.371461 -2.960600 -39.874291 -7.125000 0.000000 0.000000 80.781975 7.760565 74.511127 -49.890212 43.753548 -24.362084 -0.612381 -0.663771 -3.003087 7.125000 0.000000 0.000000 
0.588035 16.138867 3.881397 13.153900 -46.480292 10.901722 -26.891671 -36.814959 -41.867986 7.194070 16.730551 51.674416 1.864172 -5.682865 -9.846498 0.619100 5.035600 14.010200 4.866513 18.591287 -60.301753 -17.679659 -21.585987 81.924702 4.517858 -19.691529 -3.002981 -2.513600 9.862700 -28.533100 -7.779219 10.674539 12.383115 -6.914870 5.667121 1.828081 4.606216 -8.498756 43.861852 2.760100 -4.492100 25.252200 -70.572271 -24.132675 91.060692 93.175074 -57.659485 -72.735434 1.400637 -2.966160 -39.837346 -7.125000 0.000000 0.000000 80.751086 7.856059 75.145833 -50.349247 43.960692 -24.782962 -0.617043 -0.661353 -3.094894 7.125000 0.000000 0.000000 
0.601422 16.109332 3.822328 12.263104 -46.056607 11.667808 -25.612585 -36.932530 -42.739888 7.246102 16.803383 51.838506 1.930039 -6.221513 -9.428958 0.605300 4.980000 13.851700 5.582555 18.939781 -60.821164 -17.744222 -21.603235 82.062402 4.693693 -20.304000 -2.957518 -2.482800 9.806500 -28.352300 -7.222073 10.649291 12.174685 -6.917861 5.652375 1.078359 4.528386 -8.755362 43.891124 2.681200 -4.578000 25.105000 -70.851739 -24.198622 91.439010 93.131248 -57.698059 -72.758580 1.388696 -2.982416 -39.533264 -7.125000 0.000000 0.000000 80.582581 7.662538 75.064033 -50.992849 44.257476 -25.344385 -0.635917 -0.651432 -2.883274 7.125000 0.000000 0.000000 
0.602751 16.102792 3.817934 12.365916 -45.885506 11.743279 -25.587477 -37.099410 -42.912896 7.262087 16.813760 51.886048 1.946781 -6.370475 -9.321394 0.671800 5.241200 14.597900 5.476468 18.798916 -61.038638 -17.771803 -21.617420 82.146658 4.697792 -20.309525 -3.039075 -2.453200 9.752200 -28.178000 -7.621168 10.945825 12.250813 -7.040969 5.776664 1.212738 4.416079 -9.350675 43.784311 2.432300 -4.656200 25.092500 -70.670207 -24.569402 92.054420 93.177565 -57.664851 -72.826963 1.369986 -2.982274 -39.178702 -7.125000 0.000000 0.000000 81.045280 7.787466 74.421918 -51.874838 44.641356 -26.093491 -0.619743 -0.637923 -2.920755 7.125000 0.000000 0.000000 
0.593042 16.118428 3.858608 13.328912 -46.089067 11.056224 -26.692909 -37.231753 -42.359422 7.240205 16.766572 51.813281 1.916553 -6.098696 -9.588350 0.750200 5.532200 15.432900 4.628754 18.359549 -60.856947 -17.761495 -21.618855 82.160629 4.538013 -19.750383 -3.099872 -2.454800 9.755200 -28.187700 -7.911027 10.777563 12.491441 -6.898800 5.697292 1.653192 4.449566 -8.899611 43.740595 2.547400 -4.549100 25.126400 -70.713935 -24.275844 91.584927 93.341561 -57.685071 -72.970853 1.336130 -2.992934 -39.023261 -7.125000 0.000000 0.000000 80.999459 7.843625 75.218349 -52.849711 45.046757 -26.965385 -0.585218 -0.641548 -3.503934 7.125000 0.000000 0.000000 
0.594064 16.113727 3.844607 13.117243 -46.038777 11.199884 -26.425694 -37.196089 -42.496396 7.236071 16.770185 51.797252 1.939530 -6.293811 -9.423609 0.798600 5.703700 15.927100 4.810598 18.452424 -60.916948 -17.768770 -21.619222 82.177672 4.565759 -19.840158 -3.148122 -2.428000 9.705800 -28.029300 -7.763931 10.672256 12.530996 -6.929751 5.647933 1.490366 4.250533 -8.738992 43.788022 2.428100 -4.494200 25.108000 -70.731610 -24.253491 91.453354 93.705151 -57.714539 -73.340933 1.299155 -2.975907 -39.529882 -7.125000 0.000000 0.000000 80.957364 7.769735 75.695316 -53.611535 45.350589 -27.668892 -0.613895 -0.629581 -3.652565 7.125000 0.000000 0.000000 
0.592429 16.115464 3.842870 12.888597 -46.013056 11.346190 -26.245644 -37.180200 -42.541053 7.251959 16.786357 51.849675 1.936837 -6.241034 -9.507898 0.743400 5.507600 15.362200 5.008267 18.474619 -60.867112 -17.758012 -21.617027 82.164383 4.541953 -19.736702 -3.317059 -2.395800 9.646000 -27.837800 -7.458546 10.609895 12.689361 -6.846028 5.640216 1.500570 3.829712 -8.620522 43.818905 2.141200 -4.440000 25.073800 -70.881255 -24.349523 91.285448 93.898165 -57.727467 -73.549075 1.296296 -2.951556 -39.850186 -7.125000 0.000000 0.000000 80.725791 7.645937 76.149263 -54.297996 45.614047 -28.299929 -0.644411 -0.625910 -3.584426 7.125000 0.000000 0.000000 
0.591509 16.113216 3.839804 12.718013 -45.941569 11.496873 -26.040910 -37.230706 -42.667519 7.277116 16.810503 51.932930 1.930702 -6.172078 -9.593200 0.634300 5.095900 14.182200 5.145046 18.473439 -60.903701 -17.760097 -21.619565 82.175981 4.525014 -19.672507 -3.334344 -2.427600 9.705100 -28.027000 -7.229509 10.521514 12.654474 -6.826278 5.605989 1.358877 3.673808 -8.491259 43.829170 2.064100 -4.411600 24.949400 -71.047935 -24.213454 91.432006 93.580311 -57.742586 -73.216098 1.354915 -2.978232 -39.004303 -7.125000 0.000000 0.000000 80.566704 7.371623 76.617488 -54.924522 45.850693 -28.884328 -0.650678 -0.624956 -3.605184 7.125000 0.000000 0.000000 
0.598561 16.096455 3.802604 11.859197 -45.665004 12.203499 -24.957070 -37.245259 -43.344562 7.345744 16.892386 52.159054 1.950422 -6.316039 -9.512374 0.500700 4.536500 12.591000 5.865921 18.773193 -61.186341 -17.795167 -21.628960 82.244578 4.647187 -20.095620 -3.297330 -2.446300 9.739500 -28.137300 -6.899460 10.376935 12.349662 -7.089306 5.527215 0.813409 3.929673 -8.451380 43.916841 2.279900 -4.438400 24.920500 -71.256810 -23.924790 91.235845 93.790843 -57.779900 -73.522369 1.251208 -2.971765 -39.651545 -7.125000 0.000000 0.000000 80.540400 7.183271 77.182656 -55.348059 46.010308 -29.298544 -0.620455 -0.627204 -3.761536 7.125000 0.000000 0.000000 
0.588341 16.113522 3.839804 12.733647 -45.821098 11.707887 -25.782020 -37.418388 -43.007254 7.333302 16.861401 52.120797 1.892371 -5.830101 -9.920834 0.400400 4.062800 11.253500 5.155065 18.388808 -61.091612 -17.782825 -21.632922 82.245135 4.528941 -19.680339 -3.381252 -2.449900 9.746300 -28.159000 -8.618992 10.370042 12.714470 -8.021545 5.491823 2.250676 4.451729 -8.502704 43.396429 2.501000 -4.333300 24.761400 -69.759866 -24.301146 90.727705 94.272680 -57.665780 -73.635873 1.345210 -2.945291 -39.354327 -7.125000 0.000000 0.000000 81.623163 8.372641 77.871307 -55.531078 46.052633 -29.471686 -0.456363 -0.619219 -3.994102 7.125000 0.000000 0.000000 
0.592225 16.085316 3.797699 12.524187 -45.520353 11.989247 -25.339944 -37.418499 -43.623529 7.396888 16.930576 52.336810 1.932456 -6.210365 -9.580708 0.458500 4.343600 12.045300 5.242484 18.595240 -61.561226 -17.868028 -21.651767 82.506144 4.545430 -19.694541 -3.717623 -2.322300 9.507400 -27.395800 -8.246343 10.207268 12.672776 -7.807949 5.406664 1.808698 4.631493 -8.553115 43.409446 2.669300 -4.403200 24.755600 -69.957369 -24.285424 90.806986 94.286369 -57.717707 -73.613363 1.402002 -2.959038 -39.145877 -7.125000 0.000000 0.000000 81.399768 8.324858 78.194490 -56.087293 46.242866 -30.031018 -0.637342 -0.590721 -3.875281 7.125000 0.000000 0.000000 
0.583538 16.099215 3.835409 12.785805 -45.851370 11.791796 -25.967232 -37.280158 -43.245439 7.379128 16.910069 52.293424 1.890736 -5.877197 -9.819908 0.523700 4.637800 12.878300 4.859240 18.560006 -61.349854 -17.849188 -21.641563 82.490793 4.418911 -19.238429 -3.864158 -2.309000 9.482000 -27.315200 -7.030485 10.341407 12.754297 -6.744888 5.536674 1.492349 4.658098 -8.491129 43.660574 2.878200 -4.556700 24.953700 -71.406131 -23.850999 91.185257 93.897656 -57.831338 -73.487210 1.367211 -3.000259 -39.197709 -7.125000 0.000000 0.000000 80.355756 7.523853 78.497721 -56.824076 46.513933 -30.676408 -0.650303 -0.608029 -3.838584 7.125000 0.000000 0.000000 
0.590385 16.069578 3.788399 12.363047 -45.465280 12.234451 -25.295401 -37.232214 -43.886663 7.421884 16.966767 52.436733 1.932335 -6.260250 -9.474302 0.544500 4.727500 13.132900 5.250565 18.707909 -61.830513 -17.932210 -21.663003 82.684887 4.549015 -19.702476 -3.684475 -2.350100 9.560200 -27.563800 -7.615280 10.174409 12.556996 -7.421179 5.403640 1.311296 4.782454 -8.555868 43.647555 2.880800 -4.505700 24.928000 -70.653532 -23.908498 91.167550 94.095947 -57.803931 -73.486475 1.460727 -2.963238 -39.350687 -7.125000 0.000000 0.000000 80.923604 7.926856 78.922998 -57.125158 46.611229 -30.973728 -0.561136 -0.603206 -3.914395 7.125000 0.000000 0.000000 
0.588852 16.070702 3.795144 12.540671 -45.544984 12.156428 -25.443872 -37.277329 -43.849764 7.393013 16.943161 52.342873 1.930331 -6.272637 -9.418484 0.578300 4.869500 13.536800 5.009506 18.674257 -61.887311 -17.933338 -21.664657 82.712992 4.460659 -19.385048 -3.737054 -2.312500 9.488700 -27.336300 -7.194756 10.263837 12.461245 -7.006605 5.460366 0.977936 4.331073 -8.556321 43.876603 2.625400 -4.548800 24.922700 -71.180137 -23.601046 91.714098 93.776315 -57.880582 -73.161012 1.574818 -2.964720 -39.602405 -7.125000 0.000000 0.000000 80.550002 7.410221 79.113050 -57.946529 46.896888 -31.714181 -0.497655 -0.623454 -3.951631 7.125000 0.000000 0.000000 
